<svg xmlns="http://www.w3.org/2000/svg" version="1.1" xmlns:xlink="http://www.w3.org/1999/xlink" xmlns:svgjs="http://svgjs.dev/svgjs" width="1500" height="1500" viewBox="0 0 1500 1500"><rect width="1500" height="1500" fill="#ffffff"></rect><g transform="matrix(0.6666666666666666,0,0,0.6666666666666666,249.39393939393943,664.5579658208148)"><svg viewBox="0 0 396 68" data-background-color="#c0ff00" preserveAspectRatio="xMidYMid meet" height="257" width="1500" xmlns="http://www.w3.org/2000/svg" xmlns:xlink="http://www.w3.org/1999/xlink"><g id="tight-bounds" transform="matrix(1,0,0,1,0.2400000000000091,-0.08915374989538805)"><svg viewBox="0 0 395.52 68.17830749979075" height="68.17830749979075" width="395.52"><g><svg viewBox="0 0 509.1263595873876 87.76136099362346" height="68.17830749979075" width="395.52"><g transform="matrix(1,0,0,1,113.60635958738757,12.129102713301073)"><svg viewBox="0 0 395.52 63.50315556702131" height="63.50315556702131" width="395.52"><g id="textblocktransform"><svg viewBox="0 0 395.52 63.50315556702131" height="63.50315556702131" width="395.52" id="textblock"><g><svg viewBox="0 0 395.52 41.70266606416628" height="41.70266606416628" width="395.52"><g transform="matrix(1,0,0,1,0,0)"><svg width="395.52" viewBox="2.45 -35 331.93 35" height="41.70266606416628" data-palette-color="#183d24"><path d="M42.85-10L42.85-10Q42.85-7.25 41.5-4.98 40.15-2.7 37.9-1.35 35.65 0 32.85 0L32.85 0 2.45 0 2.45-5 32.85-5Q34.95-5 36.4-6.48 37.85-7.95 37.85-10L37.85-10Q37.85-12.05 36.4-13.53 34.95-15 32.85-15L32.85-15 12.45-15Q9.7-15 7.43-16.35 5.15-17.7 3.8-19.98 2.45-22.25 2.45-25L2.45-25Q2.45-27.75 3.8-30.03 5.15-32.3 7.43-33.65 9.7-35 12.45-35L12.45-35 40.35-35 40.35-30 12.45-30Q10.4-30 8.93-28.53 7.45-27.05 7.45-25L7.45-25Q7.45-22.95 8.93-21.48 10.4-20 12.45-20L12.45-20 32.85-20Q35.65-20 37.9-18.65 40.15-17.3 41.5-15.03 42.85-12.75 42.85-10ZM80.5-13.8L80.5-13.8Q80.5-10 78.92-6.88 77.35-3.75 74.5-1.88 71.65 0 67.85 0L67.85 0 59.15 0Q55.35 0 52.47-1.88 49.6-3.75 48.02-6.88 46.45-10 46.45-13.8L46.45-13.8Q46.45-17.6 48.02-20.7 49.6-23.8 52.47-25.65 55.35-27.5 59.15-27.5L59.15-27.5 67.85-27.5Q71.65-27.5 74.5-25.65 77.35-23.8 78.92-20.7 80.5-17.6 80.5-13.8ZM75.5-13.8L75.5-13.8Q75.5-16.2 74.6-18.2 73.7-20.2 71.97-21.38 70.25-22.55 67.85-22.55L67.85-22.55 59.15-22.55Q56.75-22.55 55.02-21.38 53.3-20.2 52.37-18.2 51.45-16.2 51.45-13.8L51.45-13.8Q51.45-11.4 52.37-9.4 53.3-7.4 55.02-6.2 56.75-5 59.15-5L59.15-5 67.85-5Q70.25-5 71.97-6.2 73.7-7.4 74.6-9.4 75.5-11.4 75.5-13.8ZM112.35-5L112.35 0 86.05 0 86.05-27.5 91.05-27.5 91.05-5 112.35-5ZM148.04-27.6L148.04 0 143.04 0 143.04-7.55 123.79-7.55 123.79-12.65 143.04-12.65 143.04-22.55 130.04-22.55Q127.59-22.55 125.59-21.35 123.59-20.15 122.39-18.18 121.19-16.2 121.19-13.75L121.19-13.75 121.19 0 116.14 0 116.14-13.75Q116.14-16.6 117.22-19.13 118.29-21.65 120.22-23.55 122.14-25.45 124.67-26.53 127.19-27.6 130.04-27.6L130.04-27.6 148.04-27.6ZM179.49-7.85L187.59 0 180.79 0 172.99-7.45 162.84-7.45 162.84-12.4 176.69-12.4Q178.79-12.4 180.27-13.93 181.74-15.45 181.74-17.5L181.74-17.5Q181.74-19.6 180.27-21.08 178.79-22.55 176.69-22.55L176.69-22.55 160.24-22.55 160.24 0 155.24 0 155.24-27.5 176.69-27.5Q179.49-27.5 181.74-26.15 183.99-24.8 185.34-22.53 186.69-20.25 186.69-17.5L186.69-17.5Q186.69-15.25 185.77-13.28 184.84-11.3 183.22-9.88 181.59-8.45 179.49-7.85L179.49-7.85ZM253.24-17.5L253.24-17.5Q253.24-13.85 252.09-10.68 250.94-7.5 248.81-5.1 246.69-2.7 243.71-1.35 240.74 0 237.14 0L237.14 0 219.49 0 219.49-5 237.14-5Q240.59-5 243.09-6.7 245.59-8.4 246.91-11.23 248.24-14.05 248.24-17.5L248.24-17.5Q248.24-20.95 246.91-23.8 245.59-26.65 243.09-28.33 240.59-30 237.14-30L237.14-30 216.99-30 216.99 0 211.99 0 211.99-35 237.14-35Q240.74-35 243.71-33.65 246.69-32.3 248.81-29.88 250.94-27.45 252.09-24.28 253.24-21.1 253.24-17.5ZM263.98-27.5L263.98 0 259.03 0 259.03-27.5 263.98-27.5ZM300.13-5.05L300.13 0 282.38 0Q278.53 0 275.63-1.85 272.73-3.7 271.13-6.85 269.53-10 269.53-13.85L269.53-13.85Q269.53-17.7 271.13-20.8 272.73-23.9 275.63-25.75 278.53-27.6 282.38-27.6L282.38-27.6 300.13-27.6 300.13-22.55 282.38-22.55Q279.98-22.55 278.23-21.38 276.48-20.2 275.53-18.25 274.58-16.3 274.58-13.85L274.58-13.85Q274.58-11.4 275.53-9.4 276.48-7.4 278.23-6.23 279.98-5.05 282.38-5.05L282.38-5.05 300.13-5.05ZM334.38-5.05L334.38 0 305.68 0 305.68-27.6 334.38-27.6 334.38-22.55 310.73-22.55 310.73-5.05 334.38-5.05ZM331.18-16.45L331.18-11.4 313.08-11.4 313.08-16.45 331.18-16.45Z" opacity="1" transform="matrix(1,0,0,1,0,0)" fill="#000000" class="wordmark-text-0" data-fill-palette-color="primary" id="text-0"></path></svg></g></svg></g><g transform="matrix(1,0,0,1,0,51.5476646579304)"><svg viewBox="0 0 232.20979200000002 11.95549090909091" height="11.95549090909091" width="232.20979200000002"><g transform="matrix(1,0,0,1,0,0)"><svg width="232.20979200000002" viewBox="2.85 -35 679.75 35" height="11.95549090909091" data-palette-color="#183d24"><path d="M43.3-35L43.3-10Q43.3-7.25 41.63-4.98 39.95-2.7 37.1-1.35 34.25 0 30.8 0L30.8 0 2.85 0 2.85-5 30.8-5Q32.85-5 34.55-5.68 36.25-6.35 37.27-7.5 38.3-8.65 38.3-10L38.3-10 38.3-12.5 15.35-12.5Q11.9-12.5 9.08-14.2 6.25-15.9 4.55-18.73 2.85-21.55 2.85-25L2.85-25 2.85-35 7.85-35 7.85-25Q7.85-22.95 8.85-21.23 9.85-19.5 11.58-18.5 13.3-17.5 15.35-17.5L15.35-17.5 38.3-17.5 38.3-35 43.3-35ZM83.2-13.8L83.2-13.8Q83.2-10 81.62-6.88 80.05-3.75 77.2-1.88 74.35 0 70.55 0L70.55 0 61.85 0Q58.05 0 55.17-1.88 52.3-3.75 50.72-6.88 49.15-10 49.15-13.8L49.15-13.8Q49.15-17.6 50.72-20.7 52.3-23.8 55.17-25.65 58.05-27.5 61.85-27.5L61.85-27.5 70.55-27.5Q74.35-27.5 77.2-25.65 80.05-23.8 81.62-20.7 83.2-17.6 83.2-13.8ZM78.2-13.8L78.2-13.8Q78.2-16.2 77.3-18.2 76.4-20.2 74.67-21.38 72.95-22.55 70.55-22.55L70.55-22.55 61.85-22.55Q59.45-22.55 57.72-21.38 56-20.2 55.07-18.2 54.15-16.2 54.15-13.8L54.15-13.8Q54.15-11.4 55.07-9.4 56-7.4 57.72-6.2 59.45-5 61.85-5L61.85-5 70.55-5Q72.95-5 74.67-6.2 76.4-7.4 77.3-9.4 78.2-11.4 78.2-13.8ZM113.45-27.5L118.45-27.5 118.45-13.75Q118.45-10.9 117.37-8.4 116.3-5.9 114.42-4.03 112.55-2.15 110.07-1.07 107.6 0 104.75 0L104.75 0 102 0Q99.15 0 96.67-1.07 94.2-2.15 92.32-4.05 90.45-5.95 89.37-8.43 88.3-10.9 88.3-13.75L88.3-13.75 88.3-27.5 93.3-27.5 93.3-13.75Q93.3-11.35 94.47-9.35 95.65-7.35 97.62-6.18 99.6-5 102-5L102-5 104.75-5Q107.2-5 109.15-6.18 111.1-7.35 112.27-9.35 113.45-11.35 113.45-13.75L113.45-13.75 113.45-27.5ZM149.44-7.85L157.54 0 150.74 0 142.94-7.45 132.79-7.45 132.79-12.4 146.64-12.4Q148.74-12.4 150.22-13.93 151.69-15.45 151.69-17.5L151.69-17.5Q151.69-19.6 150.22-21.08 148.74-22.55 146.64-22.55L146.64-22.55 130.19-22.55 130.19 0 125.19 0 125.19-27.5 146.64-27.5Q149.44-27.5 151.69-26.15 153.94-24.8 155.29-22.53 156.64-20.25 156.64-17.5L156.64-17.5Q156.64-15.25 155.72-13.28 154.79-11.3 153.17-9.88 151.54-8.45 149.44-7.85L149.44-7.85ZM218.14-5L218.14 0 181.94 0 181.94-35 218.14-35 218.14-30 186.94-30 186.94-5 218.14-5ZM213.89-20L213.89-15 189.44-15 189.44-20 213.89-20ZM253.99 0L248.99 0Q248.99-3.3 247.71-6.33 246.44-9.35 244.29-11.95 242.14-14.55 239.49-16.65 236.84-18.75 234.06-20.15 231.29-21.55 228.74-22.15L228.74-22.15 228.74 0 223.74 0 223.74-27.5 226.44-27.5 226.44-27.45Q229.14-27.3 232.16-26.28 235.19-25.25 238.24-23.45 241.29-21.65 244.06-19.25 246.84-16.85 248.99-13.9L248.99-13.9 248.99-27.5 253.99-27.5 253.99 0ZM289.88-5.05L289.88 0 261.18 0 261.18-27.6 289.88-27.6 289.88-22.55 266.23-22.55 266.23-5.05 289.88-5.05ZM286.68-16.45L286.68-11.4 268.58-11.4 268.58-16.45 286.68-16.45ZM319.68-7.85L327.78 0 320.98 0 313.18-7.45 303.03-7.45 303.03-12.4 316.88-12.4Q318.98-12.4 320.46-13.93 321.93-15.45 321.93-17.5L321.93-17.5Q321.93-19.6 320.46-21.08 318.98-22.55 316.88-22.55L316.88-22.55 300.43-22.55 300.43 0 295.43 0 295.43-27.5 316.88-27.5Q319.68-27.5 321.93-26.15 324.18-24.8 325.53-22.53 326.88-20.25 326.88-17.5L326.88-17.5Q326.88-15.25 325.96-13.28 325.03-11.3 323.41-9.88 321.78-8.45 319.68-7.85L319.68-7.85ZM361.78-16.45L361.78 0 344.03 0Q340.18 0 337.28-1.85 334.38-3.7 332.78-6.85 331.18-10 331.18-13.85L331.18-13.85Q331.18-17.7 332.78-20.8 334.38-23.9 337.28-25.75 340.18-27.6 344.03-27.6L344.03-27.6 361.78-27.6 361.78-22.55 344.03-22.55Q341.63-22.55 339.88-21.38 338.13-20.2 337.18-18.25 336.23-16.3 336.23-13.85L336.23-13.85Q336.23-11.4 337.18-9.4 338.13-7.4 339.88-6.23 341.63-5.05 344.03-5.05L344.03-5.05 356.73-5.05 356.73-11.4 342.38-11.4 342.38-16.45 361.78-16.45ZM398.63-27.5L398.63-8.1Q398.63-5.85 397.28-4.03 395.93-2.2 393.65-1.1 391.38 0 388.63 0L388.63 0 367.13 0 367.13-5 388.63-5Q390.68-5 392.15-5.9 393.63-6.8 393.63-8.1L393.63-8.1 393.63-9.35 377.08-9.35Q374.33-9.35 372.08-10.7 369.83-12.05 368.48-14.33 367.13-16.6 367.13-19.35L367.13-19.35 367.13-27.5 372.08-27.5 372.08-19.35Q372.08-17.25 373.55-15.8 375.03-14.35 377.08-14.35L377.08-14.35 393.63-14.35 393.63-27.5 398.63-27.5ZM465.32-22.5L465.32-22.5Q465.32-19.05 463.65-16.23 461.97-13.4 459.12-11.7 456.27-10 452.82-10L452.82-10 432.72-10 432.72-14.95 452.82-14.95Q454.92-14.95 456.62-15.98 458.32-17 459.32-18.73 460.32-20.45 460.32-22.5L460.32-22.5Q460.32-24.6 459.32-26.3 458.32-28 456.62-29 454.92-30 452.82-30L452.82-30 429.92-30 429.92 0 424.92 0 424.92-35 452.82-35Q456.27-35 459.12-33.33 461.97-31.65 463.65-28.8 465.32-25.95 465.32-22.5ZM501.42-27.6L501.42 0 496.42 0 496.42-7.55 477.17-7.55 477.17-12.65 496.42-12.65 496.42-22.55 483.42-22.55Q480.97-22.55 478.97-21.35 476.97-20.15 475.77-18.18 474.57-16.2 474.57-13.75L474.57-13.75 474.57 0 469.52 0 469.52-13.75Q469.52-16.6 470.59-19.13 471.67-21.65 473.59-23.55 475.52-25.45 478.04-26.53 480.57-27.6 483.42-27.6L483.42-27.6 501.42-27.6ZM532.87-7.85L540.97 0 534.17 0 526.37-7.45 516.22-7.45 516.22-12.4 530.07-12.4Q532.17-12.4 533.64-13.93 535.12-15.45 535.12-17.5L535.12-17.5Q535.12-19.6 533.64-21.08 532.17-22.55 530.07-22.55L530.07-22.55 513.62-22.55 513.62 0 508.62 0 508.62-27.5 530.07-27.5Q532.87-27.5 535.12-26.15 537.37-24.8 538.72-22.53 540.07-20.25 540.07-17.5L540.07-17.5Q540.07-15.25 539.14-13.28 538.22-11.3 536.59-9.88 534.97-8.45 532.87-7.85L532.87-7.85ZM561.21-22.55L561.21 0 556.21 0 556.21-22.55 542.96-22.55 542.96-27.5 574.41-27.5 574.41-22.55 561.21-22.55ZM608.81 0L603.81 0Q603.81-3.3 602.53-6.33 601.26-9.35 599.11-11.95 596.96-14.55 594.31-16.65 591.66-18.75 588.88-20.15 586.11-21.55 583.56-22.15L583.56-22.15 583.56 0 578.56 0 578.56-27.5 581.26-27.5 581.26-27.45Q583.96-27.3 586.98-26.28 590.01-25.25 593.06-23.45 596.11-21.65 598.88-19.25 601.66-16.85 603.81-13.9L603.81-13.9 603.81-27.5 608.81-27.5 608.81 0ZM644.71-5.05L644.71 0 616.01 0 616.01-27.6 644.71-27.6 644.71-22.55 621.06-22.55 621.06-5.05 644.71-5.05ZM641.51-16.45L641.51-11.4 623.41-11.4 623.41-16.45 641.51-16.45ZM674.5-7.85L682.6 0 675.8 0 668-7.45 657.85-7.45 657.85-12.4 671.7-12.4Q673.8-12.4 675.28-13.93 676.75-15.45 676.75-17.5L676.75-17.5Q676.75-19.6 675.28-21.08 673.8-22.55 671.7-22.55L671.7-22.55 655.25-22.55 655.25 0 650.25 0 650.25-27.5 671.7-27.5Q674.5-27.5 676.75-26.15 679-24.8 680.35-22.53 681.7-20.25 681.7-17.5L681.7-17.5Q681.7-15.25 680.78-13.28 679.85-11.3 678.23-9.88 676.6-8.45 674.5-7.85L674.5-7.85Z" opacity="1" transform="matrix(1,0,0,1,0,0)" fill="#000000" class="slogan-text-1" data-fill-palette-color="secondary" id="text-1"></path></svg></g></svg></g></svg></g></svg></g><g><svg viewBox="0 0 103.76136099362346 87.76136099362346" height="87.76136099362346" width="103.76136099362346"><g><svg xmlns:rdf="http://www.w3.org/1999/02/22-rdf-syntax-ns#" xmlns:inkscape="http://www.inkscape.org/namespaces/inkscape" xmlns:cc="http://creativecommons.org/ns#" xmlns:dc="http://purl.org/dc/elements/1.1/" xmlns:sodipodi="http://sodipodi.sourceforge.net/DTD/sodipodi-0.dtd" xmlns:svg="http://www.w3.org/2000/svg" xmlns="http://www.w3.org/2000/svg" xmlns:xlink="http://www.w3.org/1999/xlink" version="1.1" x="8" y="0" viewBox="1 1 98 98" enable-background="new 0 0 100 100" xml:space="preserve" height="87.76136099362346" width="87.76136099362346" class="icon-icon-0" data-fill-palette-color="accent" id="icon-0"><g fill="#183d24" data-fill-palette-color="accent"><g fill="#183d24" data-fill-palette-color="accent"><path fill="#000000" d="M90.116 1H9.884C4.978 1 1 4.978 1 9.884v80.234C1 95.023 4.978 99 9.884 99h80.232C95.022 99 99 95.022 99 90.118V9.884C99 4.978 95.021 1 90.116 1zM22 84.5c-3.59 0-6.5-2.91-6.5-6.5s2.91-6.5 6.5-6.5c3.589 0 6.5 2.91 6.5 6.5S25.589 84.5 22 84.5zM22 56.5c-3.59 0-6.5-2.91-6.5-6.5 0-3.59 2.91-6.5 6.5-6.5 3.59 0 6.5 2.91 6.5 6.5C28.5 53.59 25.59 56.5 22 56.5zM22 28.5c-3.59 0-6.5-2.91-6.5-6.5s2.91-6.5 6.5-6.5 6.5 2.91 6.5 6.5S25.59 28.5 22 28.5zM78 84.5c-3.59 0-6.5-2.91-6.5-6.5s2.91-6.5 6.5-6.5 6.5 2.91 6.5 6.5S81.59 84.5 78 84.5zM78 56.5c-3.59 0-6.5-2.91-6.5-6.5 0-3.59 2.91-6.5 6.5-6.5s6.5 2.91 6.5 6.5C84.5 53.59 81.59 56.5 78 56.5zM78 28.5c-3.59 0-6.5-2.911-6.5-6.5 0-3.59 2.91-6.5 6.5-6.5s6.5 2.91 6.5 6.5C84.5 25.589 81.59 28.5 78 28.5z" data-fill-palette-color="accent"></path></g></g></svg></g></svg></g></svg></g><defs></defs></svg><rect width="395.52" height="68.17830749979075" fill="none" stroke="none" visibility="hidden"></rect></g></svg></g></svg>